{"title":"Fall Out Boy Ft. Tommy Lee - Death Valley [Music Video] 1080p [S","uid":10098819,"size":109740870,"categoryP":"video","categoryS":"music_videos","magnet":"?xt=urn:btih:a2ab83e52dcc327f76f5ea605fce23aeb085d74d&amp;dn=Fall+Out+Boy+Ft.+Tommy+Lee+-+Death+Valley+%5BMusic+Video%5D+1080p+%5BS&amp;tr=udp%3A%2F%2Ftracker.openbittorrent.com%3A80&amp;tr=udp%3A%2F%2Fopen.demonii.com%3A1337&amp;tr=udp%3A%2F%2Ftracker.coppersurfer.tk%3A6969&amp;tr=udp%3A%2F%2Fexodus.desync.com%3A6969","seeders":1,"leechers":1,"uploader":"Sbyky","files":1,"time":1399350766,"description":"\n\nGeneral\nComplete name                            : Fall Out Boy Ft. Tommy Lee - Death Valley [Music Video] 1080p [Sbyky].mp4\nFormat                                   : MPEG-4\nFormat profile                           : Base Media\nCodec ID                                 : isom\nFile size                                : 105 MiB\nDuration                                 : 4mn 28s\nOverall bit rate mode                    : Variable\nOverall bit rate                         : 3 269 Kbps\nEncoded date                             : UTC 2014-03-07 23:11:50\nTagged date                              : UTC 2014-03-07 23:11:50\n\nVideo\nID                                       : 1\nFormat                                   : AVC\nFormat/Info                              : Advanced Video Codec\nFormat profile                           : &lt;a class=&quot;__cf_email__&quot; href=&quot;/cdn-cgi/l/email-protection&quot; data-cfemail=&quot;2f674648476f631b011f&quot;&gt;[email&amp;#160;protected]&lt;/a&gt;&lt;script cf-hash='f9e31' type=&quot;text/javascript&quot;&gt;\n/* &lt;![CDATA[ */!function(){try{var t=&quot;currentScript&quot;in document?document.currentScript:function(){for(var t=document.getElementsByTagName(&quot;script&quot;),e=t.length;e--;)if(t[e].getAttribute(&quot;cf-hash&quot;))return t[e]}();if(t&amp;&amp;t.previousSibling){var e,r,n,i,c=t.previousSibling,a=c.getAttribute(&quot;data-cfemail&quot;);if(a){for(e=&quot;&quot;,r=parseInt(a.substr(0,2),16),n=2;a.length-n;n+=2)i=parseInt(a.substr(n,2),16)^r,e+=String.fromCharCode(i);e=document.createTextNode(e),c.parentNode.replaceChild(e,c)}}}catch(u){}}();/* ]]&gt; */&lt;/script&gt;\nFormat settings, CABAC                   : Yes\nFormat settings, ReFrames                : 3 frames\nCodec ID                                 : avc1\nCodec ID/Info                            : Advanced Video Coding\nDuration                                 : 4mn 28s\nDuration_LastFrame                       : -41ms\nBit rate                                 : 3 141 Kbps\nWidth                                    : 1 920 pixels\nHeight                                   : 1 080 pixels\nDisplay aspect ratio                     : 16:9\nFrame rate mode                          : Constant\nFrame rate                               : 23.976 fps\nColor space                              : YUV\nChroma subsampling                       : 4:2:0\nBit depth                                : 8 bits\nScan type                                : Progressive\nBits/(Pixel*Frame)                       : 0.063\nStream size                              : 101 MiB (96%)\nEncoded date                             : UTC 2014-03-07 23:11:50\nTagged date                              : UTC 2014-03-07 23:11:50\n\nAudio\nID                                       : 2\nFormat                                   : AAC\nFormat/Info                              : Advanced Audio Codec\nFormat profile                           : LC\nCodec ID                                 : 40\nDuration                                 : 4mn 28s\nBit rate mode                            : Variable\nBit rate                                 : 126 Kbps\nChannel(s)                               : 2 channels\nChannel positions                        : Front: L R\nSampling rate                            : 44.1 KHz\nCompression mode                         : Lossy\nStream size                              : 4.02 MiB (4%)\nEncoded date                             : UTC 2014-03-07 23:07:15\nTagged date                              : UTC 2014-03-07 23:07:15\n\nShared By Sbyky\n","torrent":{"xt":"urn:btih:a2ab83e52dcc327f76f5ea605fce23aeb085d74d","amp;dn":"Fall+Out+Boy+Ft.+Tommy+Lee+-+Death+Valley+%5BMusic+Video%5D+1080p+%5BS","amp;tr":["udp%3A%2F%2Ftracker.openbittorrent.com%3A80","udp%3A%2F%2Fopen.demonii.com%3A1337","udp%3A%2F%2Ftracker.coppersurfer.tk%3A6969","udp%3A%2F%2Fexodus.desync.com%3A6969"],"infoHash":"a2ab83e52dcc327f76f5ea605fce23aeb085d74d","infoHashBuffer":{"type":"Buffer","data":[162,171,131,229,45,204,50,127,118,245,234,96,95,206,35,174,176,133,215,77]},"announce":[],"urlList":[]}}